<svg xmlns="http://www.w3.org/2000/svg" width="112" height="55" fill="none" viewBox="0 0 112 55"><g clip-path="url(#clip0_2032_2204)"><path fill="#fff" d="M110.69 29.877a2.67 2.67 0 0 0-.996-.965 5.8 5.8 0 0 0-1.347-.54q-.72-.191-1.463-.298-.742-.104-1.357-.213-.615-.105-.996-.328-.382-.222-.381-.646 0-.466.508-.764.51-.297 1.654-.297.763 0 1.599.191l.55.126a1.55 1.55 0 0 0 1.75-.844l.222-.464a.575.575 0 0 0-.287-.777 8.3 8.3 0 0 0-1.492-.468q-1.2-.266-2.385-.266-1.653 0-2.82.466-1.167.467-1.802 1.304a3.1 3.1 0 0 0-.636 1.919q0 .975.371 1.59.37.615.995.963.626.35 1.357.54.732.191 1.474.298.743.106 1.346.213.605.106.975.306.37.202.37.605 0 .488-.476.763-.478.275-1.621.276a7.6 7.6 0 0 1-2.11-.308l-.687-.198a1.55 1.55 0 0 0-1.841.845l-.209.454a.58.58 0 0 0 .267.758q.689.347 1.654.6 1.336.35 2.798.35 1.718 0 2.915-.466 1.197-.467 1.834-1.283a2.94 2.94 0 0 0 .636-1.855q0-.975-.371-1.59v.003zm-61.726-5.832q-1.347-.72-3.021-.72c-1.115 0-2.201.25-3.127.752a5.45 5.45 0 0 0-2.163 2.089q-.775 1.335-.774 3.031 0 1.696.806 3.021.805 1.325 2.268 2.089 1.462.763 3.414.763 1.547 0 2.735-.477a5.3 5.3 0 0 0 1.523-.92.61.61 0 0 0 .052-.877l-.478-.518a1.43 1.43 0 0 0-1.588-.359l-.56.225q-.689.275-1.58.276-1.04 0-1.78-.37a2.8 2.8 0 0 1-1.503-1.92h8.175c.257 0 .47-.194.493-.45v-.006q.022-.243.021-.434 0-1.845-.785-3.16a5.4 5.4 0 0 0-2.13-2.035zm-4.495 2.151q.648-.37 1.495-.37t1.485.37q.635.372.996 1.028.239.435.309.976h-5.606q.082-.534.314-.965.362-.668 1.007-1.039m37.46-1.512a3.8 3.8 0 0 0-.891-.724q-1.08-.635-2.523-.636-1.61 0-2.905.73a5.3 5.3 0 0 0-2.034 2.047q-.744 1.314-.744 3.095c0 1.188.247 2.217.744 3.095a5.3 5.3 0 0 0 2.034 2.045q1.293.73 2.905.73 1.504 0 2.575-.625.562-.328.987-.846v.738c0 .311.252.563.563.563h2.034c.31 0 .563-.252.563-.563V24.175a.563.563 0 0 0-.563-.563h-1.677c-.59 0-1.067.478-1.067 1.068v.004zm-.33 6.209q-.39.72-1.05 1.091-.656.37-1.483.37c-.55 0-1.025-.123-1.463-.37a2.7 2.7 0 0 1-1.05-1.091q-.393-.72-.393-1.696c0-.65.13-1.23.392-1.697a2.7 2.7 0 0 1 1.05-1.07 2.9 2.9 0 0 1 1.464-.372 3 3 0 0 1 1.483.372q.658.37 1.05 1.07t.394 1.697c0 .666-.131 1.215-.393 1.696m-19.694-6.209a3.8 3.8 0 0 0-.891-.724q-1.08-.635-2.523-.636-1.612 0-2.905.73a5.3 5.3 0 0 0-2.035 2.047q-.743 1.314-.743 3.095 0 1.78.743 3.095a5.3 5.3 0 0 0 2.035 2.045q1.292.73 2.905.73 1.505 0 2.574-.625.563-.328.987-.846v.738c0 .311.253.563.563.563h2.034a.563.563 0 0 0 .563-.563V24.175a.563.563 0 0 0-.563-.563h-1.677c-.59 0-1.066.478-1.066 1.068zm-.33 6.209q-.39.72-1.05 1.091-.657.37-1.483.37c-.55 0-1.025-.123-1.464-.37a2.7 2.7 0 0 1-1.05-1.091q-.392-.72-.393-1.696c0-.65.13-1.23.393-1.697q.39-.7 1.05-1.07a2.9 2.9 0 0 1 1.464-.372 3 3 0 0 1 1.483.372q.656.37 1.05 1.07.392.7.393 1.697c0 .666-.13 1.215-.393 1.696m6.663 4.01h2.181a.563.563 0 0 0 .564-.563V19.735a.563.563 0 0 0-.564-.563h-.792a1.95 1.95 0 0 0-1.952 1.952V34.34c0 .31.252.563.563.563m22.756-13.779a1.95 1.95 0 0 0-1.952-1.952h-.793a.563.563 0 0 0-.562.563V34.34c0 .31.252.563.562.563h2.033a.563.563 0 0 0 .564-.563v-.74q.423.52.985.848 1.07.626 2.576.626 1.611 0 2.904-.732a5.3 5.3 0 0 0 2.035-2.046q.743-1.314.743-3.095t-.743-3.095a5.3 5.3 0 0 0-2.035-2.047q-1.293-.73-2.904-.731-1.442 0-2.523.636a3.8 3.8 0 0 0-.891.727v-3.566zm.209 8.076q0-.996.392-1.696a2.74 2.74 0 0 1 1.048-1.07q.658-.37 1.485-.37c.55 0 1.025.123 1.463.37q.656.37 1.05 1.07.391.7.391 1.696c0 .664-.13 1.216-.392 1.695q-.392.722-1.049 1.092t-1.463.37a3 3 0 0 1-1.485-.37 2.7 2.7 0 0 1-1.049-1.092q-.391-.72-.391-1.695" style="fill:#fff;fill-opacity:1"/><path fill="#2d9faa" d="M13.614 35.714H5.016c-4.261 0-5.93-4.71-3.554-7.79 2.377-3.082 2.505-3.242 2.83-3.66.375-.483 1.006-.671 1.542 0 1.084 1.355 1.517 2.5 3.212 2.661.903.086 2.227.056 4.26.056 2.694-.064 4.776 1.701 4.776 4.342s-2.167 4.391-4.47 4.391z" style="fill:#2d9faa;fill:color(display-p3 .1765 .6235 .6667);fill-opacity:1"/><path fill="#fff" d="M11.983 21.838v-4.98l.807-1.034a.461.461 0 0 0-.363-.746H5.67a.461.461 0 0 0-.364.746l.803 1.029-.01 5.004s.934 1.235 1.601 2.081c.85 1.08.969 1.498 3.004 1.498.624 0 1.273.013 1.783.013 1.75 0 2.153.157 2.675.476zM34.725 20.4q-1.845-.923-4.261-.923h-4.192a2.55 2.55 0 0 0-2.55 2.549V34.34c0 .31.253.563.563.563h6.179q2.417 0 4.26-.923 1.845-.921 2.885-2.586c.692-1.11 1.038-2.707 1.038-4.205s-.346-3.094-1.038-4.204q-1.038-1.664-2.884-2.587zm-.16 9.532a4.05 4.05 0 0 1-1.695 1.612q-1.091.561-2.576.561h-3.117v-8.521c0-.721.586-1.307 1.307-1.307h1.81q1.484 0 2.576.562a4.1 4.1 0 0 1 1.696 1.6c.402.693.604 1.805.604 2.752s-.202 2.04-.604 2.74" style="fill:#fff;fill-opacity:1"/></g><defs><clipPath id="clip0_2032_2204"><path fill="#fff" d="M0 0h111.014v20.734H0z" style="fill:#fff;fill-opacity:1" transform="translate(0.25 14.9883)"/></clipPath></defs></svg>